<?xml version="1.0" standalone="no"?>
<!DOCTYPE svg PUBLIC "-//W3C//DTD SVG 20010904//EN"
 "http://www.w3.org/TR/2001/REC-SVG-20010904/DTD/svg10.dtd">
<svg version="1.0" xmlns="http://www.w3.org/2000/svg"
 width="512.000000pt" height="512.000000pt" viewBox="0 0 512.000000 512.000000"
 preserveAspectRatio="xMidYMid meet">
<metadata>
Created by potrace 1.11, written by Peter Selinger 2001-2013
</metadata>
<g transform="translate(0.000000,512.000000) scale(0.100000,-0.100000)"
fill="#000000" stroke="none">
<path d="M1797 4954 c-1 -1 -39 -5 -85 -8 -46 -4 -89 -9 -95 -11 -7 -2 -30 -7
-52 -10 -104 -15 -264 -67 -379 -122 -265 -129 -484 -362 -575 -615 -38 -105
-72 -259 -63 -290 1 -4 -17 -12 -41 -19 -88 -23 -154 -63 -223 -136 -81 -85
-122 -192 -122 -319 0 -121 41 -229 121 -321 40 -46 138 -110 191 -125 56 -16
66 -25 66 -62 0 -18 7 -59 15 -91 65 -255 241 -471 509 -625 88 -51 234 -112
313 -132 l50 -13 -23 -75 c-12 -41 -39 -127 -59 -190 -20 -63 -38 -119 -39
-125 -1 -5 -12 -39 -23 -75 -12 -36 -51 -162 -88 -280 -36 -118 -83 -269 -104
-335 -21 -66 -53 -167 -70 -225 -48 -156 -48 -157 -98 -181 -40 -19 -195 -131
-231 -166 -7 -7 -52 -25 -100 -39 -174 -53 -216 -93 -188 -182 l7 -22 336 0
c364 0 364 0 429 57 18 17 66 96 116 193 47 91 101 194 120 230 19 36 59 110
88 165 29 55 70 132 90 170 63 118 114 213 195 370 43 83 81 155 85 160 4 6
39 71 78 145 109 210 115 221 127 218 5 -2 43 -12 83 -23 77 -21 91 -31 42
-33 -73 -2 -162 -68 -225 -167 -62 -97 -116 -274 -131 -429 -3 -34 -8 -72 -10
-86 -5 -29 -5 -371 0 -415 9 -81 20 -192 20 -210 1 -17 -20 -25 -154 -62 -195
-53 -263 -78 -322 -116 -50 -33 -68 -61 -68 -107 0 -64 -36 -60 495 -60 l483
0 17 42 c21 54 22 79 1 160 -26 104 -26 305 -1 418 3 14 8 35 11 47 15 74 22
62 23 -42 2 -261 62 -413 203 -515 74 -54 157 -85 288 -107 59 -10 357 -9 440
1 171 21 328 79 441 162 43 32 68 44 83 41 148 -38 266 -48 354 -33 62 12 144
48 217 97 173 116 311 327 416 637 31 92 85 293 95 359 3 21 7 40 9 43 5 8 33
172 40 230 3 25 7 61 10 80 32 237 36 555 9 780 -32 267 -105 485 -218 650
-83 122 -234 228 -376 265 -75 20 -213 26 -297 13 -194 -28 -374 -146 -464
-303 -61 -105 -83 -191 -83 -315 0 -117 31 -219 91 -297 49 -64 78 -88 153
-125 61 -31 70 -33 176 -33 106 0 114 1 180 35 71 35 162 118 192 175 55 106
63 272 18 350 -60 102 -199 99 -261 -6 -15 -25 -19 -48 -17 -102 4 -117 -46
-167 -150 -148 -15 2 -50 47 -65 81 -20 46 -12 140 16 202 12 26 42 67 67 92
63 62 134 88 252 92 103 4 161 -12 234 -63 49 -33 118 -129 159 -218 30 -67
73 -216 84 -290 3 -23 7 -52 10 -65 23 -120 24 -563 1 -700 -3 -14 -7 -45 -10
-70 -14 -113 -19 -142 -43 -255 -14 -66 -26 -127 -28 -136 -2 -9 -13 -49 -25
-90 -111 -383 -246 -597 -411 -652 -65 -21 -209 -11 -194 14 43 69 56 549 20
744 -9 50 -18 99 -20 110 -39 204 -147 449 -282 638 -108 151 -321 346 -495
453 -27 16 -48 32 -48 37 0 4 9 26 19 50 31 68 58 175 60 238 1 22 9 28 59 43
186 58 317 229 327 426 10 218 -125 412 -335 477 -60 18 -70 27 -70 59 0 12
-11 62 -25 110 -52 181 -158 338 -310 463 -60 50 -188 124 -288 166 l-32 14
49 21 c41 19 46 24 32 32 -17 10 -233 75 -271 82 -22 4 -96 19 -107 22 -5 1
-21 2 -38 3 -43 2 -37 15 23 50 28 17 45 31 37 32 -8 0 -24 2 -35 4 -59 12
-398 27 -408 19z"/>
</g>
</svg>
